<svg width="27" height="20" viewBox="0 0 27 20" fill="none" xmlns="http://www.w3.org/2000/svg">
<path d="M25.5531 14.419C25.6599 13.877 25.6599 13.3236 25.5531 12.7816L26.6128 12.209C26.7361 12.1436 26.7894 12.0091 26.7484 11.8823C26.4732 11.0521 26.0008 10.2988 25.3847 9.67612C25.2902 9.58004 25.1382 9.55698 25.015 9.62231L23.9552 10.195C23.5075 9.83755 22.994 9.56082 22.4395 9.37633V8.23098C22.4395 8.1003 22.3409 7.985 22.2054 7.95809C21.2894 7.76592 20.357 7.7736 19.4862 7.95809C19.3506 7.985 19.252 8.1003 19.252 8.23098V9.37633C18.6975 9.56082 18.1841 9.83755 17.7364 10.195L16.6766 9.62231C16.5575 9.55698 16.4014 9.58004 16.3069 9.67612C15.6908 10.2988 15.2184 11.0521 14.9432 11.8823C14.9021 12.0091 14.9596 12.1436 15.0788 12.209L16.1385 12.7816C16.0317 13.3236 16.0317 13.877 16.1385 14.419L15.0788 14.9916C14.9555 15.057 14.9021 15.1915 14.9432 15.3183C15.2184 16.1485 15.6908 16.898 16.3069 17.5245C16.4014 17.6206 16.5534 17.6436 16.6766 17.5783L17.7364 17.0056C18.1841 17.3631 18.6975 17.6398 19.252 17.8243V18.9696C19.252 19.1003 19.3506 19.2156 19.4862 19.2425C20.4022 19.4347 21.3346 19.427 22.2054 19.2425C22.3409 19.2156 22.4395 19.1003 22.4395 18.9696V17.8243C22.994 17.6398 23.5075 17.3631 23.9552 17.0056L25.015 17.5783C25.1341 17.6436 25.2902 17.6206 25.3847 17.5245C26.0008 16.9018 26.4732 16.1485 26.7484 15.3183C26.7894 15.1915 26.7319 15.057 26.6128 14.9916L25.5531 14.419ZM20.8499 15.4644C19.7491 15.4644 18.8577 14.6265 18.8577 13.6003C18.8577 12.5741 19.7532 11.7362 20.8499 11.7362C21.9466 11.7362 22.8421 12.5741 22.8421 13.6003C22.8421 14.6265 21.9507 15.4644 20.8499 15.4644ZM9.67729 9.91057C12.5813 9.91057 14.935 7.70827 14.935 4.99093C14.935 2.2736 12.5813 0.0712891 9.67729 0.0712891C6.77323 0.0712891 4.41959 2.2736 4.41959 4.99093C4.41959 7.70827 6.77323 9.91057 9.67729 9.91057ZM17.9417 18.616C17.8473 18.5699 17.7528 18.5161 17.6624 18.4661L17.3379 18.6429C17.0915 18.7736 16.8121 18.8466 16.5328 18.8466C16.0851 18.8466 15.6538 18.6698 15.3457 18.3624C14.5941 17.6014 14.019 16.6751 13.6945 15.6873C13.4686 15.007 13.7725 14.2883 14.4298 13.9308L14.7543 13.754C14.7501 13.6541 14.7501 13.5542 14.7543 13.4543L14.4298 13.2775C13.7725 12.9239 13.4686 12.2013 13.6945 11.521C13.7315 11.4095 13.7849 11.2981 13.8259 11.1866C13.6699 11.1751 13.5179 11.1405 13.3577 11.1405H12.6717C11.7598 11.5325 10.7453 11.7554 9.67729 11.7554C8.60932 11.7554 7.59886 11.5325 6.68287 11.1405H5.9969C2.94908 11.1405 0.476318 13.4543 0.476318 16.3061V17.905C0.476318 18.9235 1.35945 19.7499 2.44795 19.7499H16.9066C17.3215 19.7499 17.7076 19.6269 18.0239 19.4232C17.9746 19.2771 17.9417 19.1272 17.9417 18.9696V18.616Z" fill="#88879C"/>
</svg>
