<svg width="15" height="15" viewBox="0 0 15 15" fill="none" xmlns="http://www.w3.org/2000/svg">
<path fill-rule="evenodd" clip-rule="evenodd" d="M4.5 3H3V2.25H1.5V4.5H13.5V2.25H12V3H10.5V2.25H4.5V3ZM13.5 6H1.5V13.5H13.5V6ZM10.5 0.75H4.5V0H3V0.75H1.5C0.671572 0.75 0 1.42157 0 2.25V13.5C0 14.3285 0.671572 15 1.5 15H13.5C14.3285 15 15 14.3285 15 13.5V2.25C15 1.42157 14.3285 0.75 13.5 0.75H12V0H10.5V0.75ZM3.75 9V7.5H5.25V9H3.75ZM6.75 9H8.25V7.5H6.75V9ZM9.75 9V7.5H11.25V9H9.75ZM3.75 10.5V12H5.25V10.5H3.75ZM8.25 12H6.75V10.5H8.25V12Z" fill="black"/>
</svg>
