<svg width="22" height="19" viewBox="0 0 22 19" fill="none" xmlns="http://www.w3.org/2000/svg">
<path d="M11.705 0.462566C11.4526 0.247673 11.1102 0.126953 10.7532 0.126953C10.3963 0.126953 10.0539 0.247673 9.80147 0.462566L0.377901 8.48646C0.132675 8.70265 -0.00301637 8.9922 5.08908e-05 9.29275C0.00311815 9.5933 0.144699 9.8808 0.3943 10.0933C0.643901 10.3059 0.98155 10.4264 1.33453 10.429C1.6875 10.4316 2.02756 10.3161 2.28146 10.1073L2.6759 9.77143V17.3208C2.6759 17.6248 2.81774 17.9163 3.0702 18.1313C3.32267 18.3463 3.66509 18.467 4.02213 18.467H6.71457C7.07162 18.467 7.41403 18.3463 7.6665 18.1313C7.91896 17.9163 8.0608 17.6248 8.0608 17.3208V15.0282C8.0608 14.7242 8.20263 14.4327 8.4551 14.2177C8.70756 14.0027 9.04998 13.882 9.40702 13.882H12.0995C12.4565 13.882 12.7989 14.0027 13.0514 14.2177C13.3039 14.4327 13.4457 14.7242 13.4457 15.0282V17.3208C13.4457 17.6248 13.5875 17.9163 13.84 18.1313C14.0925 18.3463 14.4349 18.467 14.7919 18.467H17.4844C17.8414 18.467 18.1838 18.3463 18.4363 18.1313C18.6888 17.9163 18.8306 17.6248 18.8306 17.3208V9.77143L19.225 10.1073C19.4789 10.3161 19.819 10.4316 20.172 10.429C20.5249 10.4264 20.8626 10.3059 21.1122 10.0933C21.3618 9.8808 21.5034 9.5933 21.5064 9.29275C21.5095 8.9922 21.3738 8.70265 21.1286 8.48646L11.705 0.462566Z" fill="#0ACDDA"/>
</svg>
