<svg width="18" height="19" viewBox="0 0 18 19" fill="none" xmlns="http://www.w3.org/2000/svg">
<path d="M10.3024 17.2963C11.2723 17.1158 12.1991 16.7354 13.0297 16.1768C13.8604 15.6182 14.5787 14.8923 15.1436 14.0407C15.7086 13.1891 16.109 12.2284 16.3222 11.2134C16.5354 10.1984 16.5571 9.14904 16.3861 8.1252C16.215 7.10137 15.8546 6.12311 15.3254 5.2463C14.7962 4.36948 14.1086 3.61127 13.3018 3.01496C12.495 2.41866 11.5849 1.99593 10.6233 1.77091C9.66173 1.54589 8.66759 1.52299 7.69764 1.70352C6.72769 1.88405 5.80092 2.26448 4.97025 2.82307C4.13958 3.38166 3.42128 4.10749 2.85636 4.95911C2.29144 5.81072 1.89095 6.77145 1.67778 7.78644C1.46461 8.80143 1.44291 9.8508 1.61394 10.8746C1.78497 11.8985 2.14537 12.8767 2.67457 13.7535C3.20376 14.6304 3.89138 15.3886 4.69818 15.9849C5.50497 16.5812 6.41514 17.0039 7.3767 17.2289C8.33827 17.4539 9.33241 17.4768 10.3024 17.2963L10.3024 17.2963Z" stroke="#CCD2E3" stroke-width="2"/>
<path d="M9 9.5L9 14.25" stroke="#CCD2E3" stroke-width="2" stroke-linecap="square"/>
<path d="M9 5.54175L9 4.75008" stroke="#CCD2E3" stroke-width="2" stroke-linecap="square"/>
</svg>
