<svg width="18" height="18" viewBox="0 0 18 18" fill="none" xmlns="http://www.w3.org/2000/svg">
<path d="M13.6933 12.8516C13.4172 13.2301 13.0859 13.6087 12.7822 13.9872C14.9356 14.309 16.1779 14.8768 16.1779 15.2175C16.1779 15.7475 13.4448 16.7317 9 16.7317C4.55521 16.7317 1.82209 15.7664 1.82209 15.2175C1.82209 14.8579 3.06442 14.309 5.21779 13.9872C4.8865 13.5897 4.58282 13.2112 4.30675 12.8516C1.82209 13.2869 0 14.0819 0 15.2365C0 17.0535 4.52761 17.9999 9 17.9999C13.4724 17.9999 18 17.0535 18 15.2365C18 14.0819 16.1779 13.268 13.6933 12.8516Z" fill="black"/>
<path d="M10.4909 14.404C12.6719 11.8298 16.4265 7.07896 16.4265 5.09155C16.4265 2.29025 13.1136 0 9.00011 0C4.91422 0 1.57373 2.27132 1.57373 5.09155C1.57373 7.09789 5.32833 11.8298 7.48171 14.404C8.17189 15.1989 9.82833 15.1989 10.4909 14.404ZM5.13508 5.09155C5.13508 3.63412 6.87434 2.44167 9.00011 2.44167C11.1259 2.44167 12.8651 3.63412 12.8651 5.09155C12.8651 6.54898 11.1259 7.74143 9.00011 7.74143C6.87434 7.74143 5.13508 6.54898 5.13508 5.09155Z" fill="black"/>
</svg>
