<svg width="18" height="18" viewBox="0 0 18 18" fill="none" xmlns="http://www.w3.org/2000/svg">
<path fill-rule="evenodd" clip-rule="evenodd" d="M2.48584 2.4375C2.48584 1.71263 3.04752 1.125 3.74039 1.125H7.68324C7.98019 1.125 8.22091 1.37684 8.22091 1.6875C8.22091 1.99816 7.98019 2.25 7.68324 2.25H3.74039C3.6414 2.25 3.56116 2.33395 3.56116 2.4375V15.5625C3.56116 15.6661 3.6414 15.75 3.74039 15.75H7.68324C7.98019 15.75 8.22091 16.0018 8.22091 16.3125C8.22091 16.6232 7.98019 16.875 7.68324 16.875H3.74039C3.04752 16.875 2.48584 16.2874 2.48584 15.5625V2.4375ZM13.9605 8.4375H8.04168C7.74474 8.4375 7.50402 8.68934 7.50402 9C7.50402 9.31066 7.74474 9.5625 8.04168 9.5625H13.9605L11.5942 12.1756C11.39 12.4012 11.3992 12.7572 11.6148 12.9708C11.8303 13.1845 12.1706 13.1749 12.3749 12.9494L15.6008 9.38686C15.7973 9.1699 15.7973 8.8301 15.6008 8.61314L12.3749 5.05064C12.1706 4.82512 11.8303 4.8155 11.6148 5.02915C11.3992 5.24281 11.39 5.59883 11.5942 5.82436L13.9605 8.4375Z" fill="black"/>
</svg>
