<svg width="24" height="24" viewBox="0 0 24 24" fill="none" xmlns="http://www.w3.org/2000/svg">
<path d="M22.8 8.78571C22.9647 8.78753 23.1288 8.80638 23.2904 8.84204C23.3771 8.85953 23.4661 8.85556 23.5512 8.8304C23.6364 8.80523 23.7157 8.75947 23.7838 8.69628C23.8514 8.63268 23.9059 8.55301 23.9433 8.46291C23.9807 8.37282 24 8.27452 24 8.175V5.39286C23.999 4.49335 23.6827 3.63099 23.1203 2.99493C22.5579 2.35888 21.7954 2.00108 21 2H3C2.20464 2.00108 1.44213 2.35888 0.879732 2.99493C0.317329 3.63099 0.000952732 4.49335 1.76845e-08 5.39286V8.175C-1.87196e-05 8.27462 0.0193575 8.37302 0.0567527 8.46322C0.0941479 8.55342 0.148645 8.6332 0.216373 8.69689C0.284101 8.76059 0.363399 8.80664 0.448636 8.83177C0.533872 8.8569 0.622956 8.8605 0.70956 8.84231C0.871171 8.80656 1.03534 8.78762 1.2 8.78571C1.83652 8.78571 2.44697 9.07168 2.89706 9.58071C3.34714 10.0897 3.6 10.7801 3.6 11.5C3.6 12.2199 3.34714 12.9103 2.89706 13.4193C2.44697 13.9283 1.83652 14.2143 1.2 14.2143C1.03534 14.2125 0.871178 14.1936 0.70956 14.158C0.622903 14.1405 0.533924 14.1445 0.448757 14.1696C0.36359 14.1948 0.284261 14.2405 0.21624 14.3037C0.148556 14.3673 0.0940907 14.447 0.0567169 14.5371C0.0193432 14.6272 -2.13622e-05 14.7255 1.76845e-08 14.825V17.6071C0.000952732 18.5067 0.317329 19.369 0.879732 20.0051C1.44213 20.6411 2.20464 20.9989 3 21H21C21.7954 20.9989 22.5579 20.6411 23.1203 20.0051C23.6827 19.369 23.999 18.5067 24 17.6071V14.825C24.0001 14.7255 23.9808 14.6271 23.9434 14.537C23.9061 14.4468 23.8517 14.3671 23.784 14.3034C23.7159 14.2403 23.6366 14.1946 23.5515 14.1695C23.4663 14.1443 23.3773 14.1403 23.2907 14.1577C23.129 14.1935 22.9647 14.2124 22.8 14.2143C22.1635 14.2143 21.553 13.9283 21.1029 13.4193C20.6529 12.9103 20.4 12.2199 20.4 11.5C20.4 10.7801 20.6529 10.0897 21.1029 9.58071C21.553 9.07168 22.1635 8.78571 22.8 8.78571V8.78571ZM22.8 15.5714V17.6071C22.7995 18.1469 22.6096 18.6643 22.2722 19.0459C21.9347 19.4276 21.4772 19.6422 21 19.6429H3C2.52278 19.6422 2.06525 19.4276 1.7278 19.0459C1.39036 18.6643 1.20054 18.1469 1.2 17.6071V15.5714C2.15478 15.5714 3.07045 15.1425 3.74558 14.3789C4.42072 13.6154 4.8 12.5798 4.8 11.5C4.8 10.4202 4.42072 9.38461 3.74558 8.62106C3.07045 7.85752 2.15478 7.42857 1.2 7.42857V5.39286C1.20054 4.85314 1.39036 4.3357 1.7278 3.95406C2.06525 3.57243 2.52278 3.35775 3 3.35714H21C21.4772 3.35775 21.9347 3.57243 22.2722 3.95406C22.6096 4.3357 22.7995 4.85314 22.8 5.39286V7.42857C21.8452 7.42857 20.9295 7.85752 20.2544 8.62106C19.5793 9.38461 19.2 10.4202 19.2 11.5C19.2 12.5798 19.5793 13.6154 20.2544 14.3789C20.9295 15.1425 21.8452 15.5714 22.8 15.5714Z" fill="black"/>
<path d="M12.6 7.42857V8.78571C12.6 8.96568 12.5368 9.13828 12.4243 9.26554C12.3117 9.39279 12.1591 9.46429 12 9.46429C11.8409 9.46429 11.6883 9.39279 11.5757 9.26554C11.4632 9.13828 11.4 8.96568 11.4 8.78571V7.42857C11.4 7.2486 11.4632 7.07601 11.5757 6.94875C11.6883 6.82149 11.8409 6.75 12 6.75C12.1591 6.75 12.3117 6.82149 12.4243 6.94875C12.5368 7.07601 12.6 7.2486 12.6 7.42857Z" fill="black"/>
<path d="M12.6 14.2142V15.5714C12.6 15.7513 12.5368 15.9239 12.4243 16.0512C12.3117 16.1784 12.1591 16.2499 12 16.2499C11.8409 16.2499 11.6883 16.1784 11.5757 16.0512C11.4632 15.9239 11.4 15.7513 11.4 15.5714V14.2142C11.4 14.0342 11.4632 13.8616 11.5757 13.7344C11.6883 13.6071 11.8409 13.5356 12 13.5356C12.1591 13.5356 12.3117 13.6071 12.4243 13.7344C12.5368 13.8616 12.6 14.0342 12.6 14.2142Z" fill="black"/>
</svg>
