<svg width="18" height="18" viewBox="0 0 18 18" fill="none" xmlns="http://www.w3.org/2000/svg">
<path d="M8 4.41916C8 5.35596 7.68393 6.25438 7.12132 6.9168C6.55871 7.57921 5.79565 7.95135 5 7.95135C4.20435 7.95135 3.44129 7.57921 2.87868 6.9168C2.31607 6.25438 2 5.35596 2 4.41916C2 3.48236 2.31607 2.58393 2.87868 1.92152C3.44129 1.2591 4.20435 0.886963 5 0.886963C5.79565 0.886963 6.55871 1.2591 7.12132 1.92152C7.68393 2.58393 8 3.48236 8 4.41916ZM16 4.41916C16 4.88301 15.9224 5.34233 15.7716 5.77087C15.6209 6.19942 15.3999 6.5888 15.1213 6.9168C14.8427 7.24479 14.512 7.50497 14.1481 7.68248C13.7841 7.85999 13.394 7.95135 13 7.95135C12.606 7.95135 12.2159 7.85999 11.8519 7.68248C11.488 7.50497 11.1573 7.24479 10.8787 6.9168C10.6001 6.5888 10.3791 6.19942 10.2284 5.77087C10.0776 5.34233 10 4.88301 10 4.41916C10 3.48236 10.3161 2.58393 10.8787 1.92152C11.4413 1.2591 12.2044 0.886963 13 0.886963C13.7956 0.886963 14.5587 1.2591 15.1213 1.92152C15.6839 2.58393 16 3.48236 16 4.41916ZM11.93 17.3705C11.976 16.9855 12 16.5935 12 16.1931C12.0023 14.3433 11.4737 12.5468 10.5 11.095C11.2601 10.5783 12.1223 10.3063 13 10.3063C13.8776 10.3063 14.7399 10.5783 15.4999 11.095C16.26 11.6116 16.8912 12.3548 17.3301 13.2497C17.7689 14.1446 18 15.1598 18 16.1931V17.3705H11.93ZM5 10.3062C6.32608 10.3062 7.59785 10.9264 8.53553 12.0304C9.47322 13.1344 10 14.6318 10 16.1931V17.3705H0V16.1931C0 14.6318 0.526784 13.1344 1.46447 12.0304C2.40215 10.9264 3.67392 10.3062 5 10.3062Z" fill="url(#paint0_radial_11_1220)"/>
<defs>
<radialGradient id="paint0_radial_11_1220" cx="0" cy="0" r="1" gradientUnits="userSpaceOnUse" gradientTransform="translate(9 0.886963) rotate(90) scale(17.5825 18.7486)">
<stop stop-color="#FE9B4B"/>
<stop offset="1" stop-color="#F47814"/>
</radialGradient>
</defs>
</svg>
